<?xml version="1.0" encoding="iso-8859-1"?>
<!-- Generator: Adobe Illustrator 19.0.0, SVG Export Plug-In . SVG Version: 6.00 Build 0)  -->
<svg version="1.1" id="Layer_1" xmlns="http://www.w3.org/2000/svg" xmlns:xlink="http://www.w3.org/1999/xlink" x="0px" y="0px" fill="white"
	 viewBox="0 0 512 512" style="enable-background:new 0 0 512 512;" xml:space="preserve">
<g>
	<g>
		<g>
			<circle cx="256.001" cy="232.132" r="10.689"/>
			<circle cx="256.001" cy="268.111" r="10.689"/>
			<path d="M423.565,112.31c5.87-8.252,9.338-18.327,9.338-29.203V50.505C432.903,22.656,410.247,0,382.398,0h-6.948
				c-27.849,0-50.505,22.656-50.505,50.505v32.601c0,10.843,3.446,20.889,9.284,29.127h-33.534
				c5.838-8.238,9.285-18.284,9.285-29.127V50.505C309.98,22.656,287.324,0,259.475,0h-6.948c-27.849,0-50.505,22.656-50.505,50.505
				v32.601c0,10.843,3.447,20.889,9.287,29.127h-33.534c5.837-8.238,9.283-18.284,9.283-29.127V50.505
				C187.057,22.656,164.401,0,136.552,0h-6.948c-27.849,0-50.505,22.656-50.505,50.505v32.601c0,10.876,3.467,20.951,9.338,29.203
				c-37.537,1.572-67.593,32.454-67.593,70.204v104.217c0,21.66,17.689,39.282,39.434,39.282c0.219,0,0.434-0.019,0.65-0.033
				v150.391c0,19.646,15.983,35.629,35.629,35.629h11.579c9.701,0,18.509-3.897,24.94-10.208c6.432,6.311,15.24,10.208,24.94,10.208
				h11.579c9.703,0,18.498-3.914,24.93-10.228c6.433,6.32,15.243,10.228,24.952,10.228h11.579c9.701,0,18.509-3.897,24.94-10.208
				c6.432,6.311,15.24,10.208,24.941,10.208h11.58c9.709,0,18.52-3.908,24.952-10.228c6.43,6.314,15.225,10.228,24.929,10.228h11.58
				c9.7,0,18.509-3.897,24.94-10.208c6.432,6.311,15.24,10.208,24.941,10.208h11.58c19.646,0,35.629-15.983,35.629-35.629V325.979
				c0.216,0.013,0.431,0.033,0.65,0.033c21.743,0,39.434-17.622,39.434-39.282V182.514
				C491.158,144.763,461.102,113.882,423.565,112.31z M346.323,50.505c0-16.061,13.067-29.127,29.127-29.127h6.948
				c16.06,0,29.127,13.066,29.127,29.127v32.601c0,16.061-13.067,29.127-29.127,29.127h-6.948c-16.06,0-29.127-13.066-29.127-29.127
				V50.505z M223.4,50.505c0-16.061,13.066-29.127,29.127-29.127h6.948c16.06,0,29.127,13.066,29.127,29.127v32.601
				c0,16.061-13.067,29.127-29.127,29.127h-6.948c-16.061,0-29.127-13.066-29.127-29.127V50.505z M280.722,133.612l-24.721,40.565
				l-24.721-40.565H280.722z M100.477,50.505c0-16.061,13.066-29.127,29.127-29.127h6.948c16.061,0,29.127,13.066,29.127,29.127
				v32.601c0,16.061-13.066,29.127-29.127,29.127h-6.948c-16.061,0-29.127-13.066-29.127-29.127V50.505z M71.617,207.9
				c-5.904,0-10.689,4.785-10.689,10.689v0.003v86.075c-0.216-0.013-0.431-0.033-0.65-0.033c-9.956,0-18.056-8.032-18.056-17.904
				V182.513c0-26.965,22.079-48.902,49.217-48.902h72.284c-12.341,12.659-19.955,29.909-19.955,48.902V286.73
				c0,3.46,0.456,6.815,1.303,10.014l-11.971,6.062l-50.795-25.833v-58.38v-0.004C82.306,212.685,77.52,207.9,71.617,207.9z
				 M183.851,476.37c0,7.86-6.393,14.253-14.252,14.253H158.02c-7.858,0-14.252-6.393-14.252-14.252v-117.49
				c0-5.904-4.785-10.689-10.689-10.689c-5.903,0-10.689,4.785-10.689,10.689v117.49c0,7.859-6.393,14.252-14.252,14.252H96.557
				c-7.858,0-14.252-6.393-14.252-14.252V300.957l45.938,23.364c1.522,0.774,3.184,1.161,4.845,1.161
				c1.655,0,3.31-0.384,4.829-1.153l18.111-9.171c7.079,6.717,16.646,10.855,27.171,10.855c0.219,0,0.434-0.019,0.65-0.033V476.37z
				 M306.773,476.371c0,7.859-6.393,14.252-14.252,14.252h-11.58c-7.859,0-14.252-6.393-14.252-14.252v-117.49
				c0-5.904-4.786-10.689-10.689-10.689c-5.904,0-10.689,4.785-10.689,10.689v117.49c0,7.859-6.393,14.252-14.252,14.252h-11.579
				c-7.859,0-14.252-6.393-14.252-14.252v-175.3l45.934,23.258c1.519,0.768,3.174,1.153,4.829,1.153
				c1.662,0,3.323-0.387,4.845-1.161l45.936-23.365V476.371z M317.462,207.9c-5.902,0-10.689,4.785-10.689,10.689v0.003v58.38
				l-50.794,25.834l-50.751-25.697v-58.517v-0.003c0-5.904-4.785-10.689-10.689-10.689s-10.689,4.785-10.689,10.689v0.003v86.075
				c-0.216-0.013-0.431-0.033-0.65-0.033c-9.956,0-18.056-8.032-18.056-17.904V182.513c0-24.346,18.001-44.588,41.472-48.292
				l40.257,66.058c1.94,3.184,5.399,5.126,9.127,5.126s7.187-1.942,9.127-5.126l40.257-66.058
				c23.471,3.703,41.472,23.945,41.472,48.292V286.73c0,9.872-8.099,17.904-18.056,17.904c-0.219,0-0.434,0.019-0.65,0.033v-86.075
				v-0.003C328.151,212.685,323.365,207.9,317.462,207.9z M429.696,476.371c0,7.859-6.393,14.252-14.252,14.252h-11.58
				c-7.859,0-14.252-6.393-14.252-14.252v-117.49c0-5.904-4.786-10.689-10.689-10.689c-5.902,0-10.689,4.785-10.689,10.689v117.49
				c0,7.859-6.393,14.252-14.252,14.252h-11.58c-7.859,0-14.252-6.393-14.252-14.252V325.979c0.216,0.013,0.431,0.033,0.65,0.033
				c10.525,0,20.092-4.137,27.171-10.855l18.111,9.171c1.519,0.768,3.174,1.153,4.829,1.153c1.662,0,3.323-0.387,4.845-1.161
				l45.938-23.365V476.371z M451.724,304.635c-0.219,0-0.434,0.019-0.65,0.033v-86.075v-0.004c0-5.904-4.786-10.689-10.689-10.689
				c-5.902,0-10.689,4.785-10.689,10.689v0.003v58.38l-50.794,25.834l-11.972-6.062c0.848-3.198,1.303-6.554,1.303-10.014V182.513
				c0-18.993-7.615-36.243-19.956-48.902h72.284c27.139,0,49.217,21.937,49.217,48.902v104.218h0.001
				C469.78,296.603,461.681,304.635,451.724,304.635z"/>
		</g>
	</g>
</g>
<g>
</g>
<g>
</g>
<g>
</g>
<g>
</g>
<g>
</g>
<g>
</g>
<g>
</g>
<g>
</g>
<g>
</g>
<g>
</g>
<g>
</g>
<g>
</g>
<g>
</g>
<g>
</g>
<g>
</g>
</svg>
