<?xml version="1.0" standalone="no"?>
<!DOCTYPE svg PUBLIC "-//W3C//DTD SVG 20010904//EN"
 "http://www.w3.org/TR/2001/REC-SVG-20010904/DTD/svg10.dtd">
<svg version="1.0" xmlns="http://www.w3.org/2000/svg"
 width="700.000000pt" height="700.000000pt" viewBox="0 0 700.000000 700.000000"
 preserveAspectRatio="xMidYMid meet">
<metadata>
Created by potrace 1.14, written by Peter Selinger 2001-2017
</metadata>
<g transform="translate(0.000000,700.000000) scale(0.100000,-0.100000)"
fill="#000000" stroke="none">
<path d="M4717 6124 c-1 -1 -24 -4 -52 -8 -412 -49 -774 -284 -984 -640 -83
-141 -149 -330 -169 -483 -13 -105 -7 -342 12 -430 112 -533 500 -922 1036
-1039 101 -22 349 -26 455 -8 287 51 521 170 721 369 354 352 477 861 323
1335 -117 359 -387 652 -739 803 -98 42 -254 83 -355 93 -59 6 -243 12 -248 8z"/>
<path d="M1850 5683 c-138 -18 -311 -75 -425 -142 -272 -157 -478 -443 -530
-736 -19 -108 -26 -266 -14 -325 4 -19 10 -56 13 -81 22 -170 129 -387 268
-543 116 -131 342 -273 498 -312 8 -2 33 -8 55 -14 96 -24 310 -34 415 -18
296 44 570 216 737 460 56 83 138 248 148 298 2 8 8 33 14 55 6 22 13 57 16
78 3 20 8 54 11 75 22 146 -11 374 -76 533 -102 247 -315 469 -550 573 -36 16
-73 32 -82 37 -18 9 -152 44 -208 54 -38 8 -250 13 -290 8z"/>
<path d="M2117 3064 c-1 -1 -59 -5 -129 -8 -71 -4 -136 -9 -145 -10 -10 -2
-43 -7 -73 -11 -30 -4 -64 -9 -75 -11 -11 -3 -33 -6 -50 -9 -119 -18 -414
-103 -440 -126 -5 -5 -16 -9 -25 -9 -26 0 -257 -121 -345 -180 -282 -189 -503
-437 -649 -728 -81 -161 -144 -342 -171 -492 -11 -63 -14 -224 -4 -275 30
-162 161 -284 343 -322 17 -3 457 -7 979 -7 848 -2 947 0 941 14 -70 169 -88
278 -81 485 16 506 232 981 622 1370 88 87 147 140 203 181 21 15 14 18 -128
53 -229 56 -427 80 -683 85 -49 0 -89 0 -90 0z"/>
<path d="M4757 3064 c-1 -1 -58 -5 -127 -8 -214 -13 -342 -31 -522 -77 -377
-95 -673 -258 -941 -518 -316 -307 -541 -789 -540 -1158 0 -227 142 -387 373
-421 30 -4 858 -7 1840 -7 1683 1 1788 2 1845 19 130 39 221 109 269 208 35
71 38 87 41 199 4 142 -25 289 -92 469 -206 549 -628 957 -1193 1153 -146 50
-363 100 -490 113 -36 3 -68 8 -71 10 -10 5 -386 23 -392 18z"/>
</g>
</svg>
