<?xml version="1.0" encoding="utf-8"?>
<!-- Generator: Adobe Illustrator 21.1.0, SVG Export Plug-In . SVG Version: 6.00 Build 0)  -->
<svg version="1.1" xmlns="http://www.w3.org/2000/svg" xmlns:xlink="http://www.w3.org/1999/xlink" x="0px" y="0px"
	 viewBox="0 0 960 800" style="enable-background:new 0 0 960 800;" xml:space="preserve">
<style type="text/css">
	.st0{fill:#606060;}
	.st1{fill:url(#SVGID_1_);}
	.st2{fill:#00B6BF;}
	.st3{fill:#575756;}
	.st4{fill:#E94E1B;}
	.st5{fill:#FFE70B;}
	.st6{fill:#FFFFFF;}
	.st7{fill:#FFC010;}
	.st8{fill:none;}
	.st9{fill:#F6F6F6;}
	.st10{fill:#DADADA;}
	.st11{fill:#1D1D1B;}
	.st12{fill:#E04327;}
	.st13{fill:#9D9D9C;}
	.st14{fill:#1C0336;}
	.st15{fill:#3D0103;}
	.st16{fill:#EDEDED;}
	.st17{fill:#C6C6C6;}
	.st18{fill:#D55A2D;}
	.st19{fill:#F1AF00;}
	.st20{fill:#002F43;}
	.st21{fill:#F5F5F5;}
	.st22{fill:#D9D9D9;}
	.st23{fill:#B1B1B1;}
	.st24{fill:#868686;}
	.st25{fill:#F9D8A9;}
	.st26{fill:#BD1622;}
	.st27{fill:#FCE9CE;}
	.st28{fill:#FCE9CD;}
	.st29{fill:#011116;}
	.st30{fill:#01222D;}
	.st31{fill:#113240;}
	.st32{fill:#FEF9DF;}
	.st33{fill:#FFFEF9;}
	.st34{fill:#FFECB0;}
	.st35{fill:#FDE680;}
	.st36{fill:#C0D54C;}
	.st37{fill:#9AE9ED;}
	.st38{fill:#15BAAC;}
	.st39{fill:#0A9B86;}
	.st40{fill:#5D5D5D;}
	.st41{fill:#FF4800;}
	.st42{fill:#FF6317;}
	.st43{fill:#FF7E2D;}
	.st44{fill:#FF9944;}
	.st45{fill:#F4A58C;}
	.st46{fill:#F27729;}
	.st47{fill:#C5F4F9;}
	.st48{fill:#28A5B2;}
	.st49{fill:#F9C0AA;}
	.st50{fill:#FFD5C2;}
	.st51{fill:#1E7C85;}
	.st52{fill:#CBF3F4;}
	.st53{fill:#DEFDFF;}
	.st54{fill:#5ECCE5;}
	.st55{fill:#4BDBD7;}
	.st56{fill:#464F58;}
	.st57{fill:#304556;}
	.st58{fill:#375560;}
	.st59{fill:#0E2D38;}
	.st60{fill:#415B66;}
	.st61{fill:#F3FEFF;}
	.st62{fill:#F4EBC9;}
	.st63{fill:#FAFFFE;}
	.st64{fill:#294F59;}
	.st65{fill:#E23A00;}
	.st66{fill:#4BC0E0;}
	.st67{fill:#24A8C6;}
	.st68{fill:#BDE2E5;}
	.st69{fill:#0B99AF;}
	.st70{fill:#0A919B;}
	.st71{fill:#E1F9FF;}
	.st72{fill:#FFC8A3;}
	.st73{fill:#3C3C3B;}
	.st74{fill:#B8BFC7;}
	.st75{fill:#FF6800;}
	.st76{fill:#BF4E00;}
	.st77{fill:#0086BF;}
	.st78{fill:#F9B59D;}
	.st79{fill:#959595;}
	.st80{fill:#FFCAB3;}
	.st81{fill:#00B3FF;}
	.st82{fill:#2D2D2C;}
	.st83{fill:#FBFBFB;}
	.st84{fill:#FAFEFF;}
	.st85{fill:#EAEAEA;}
	.st86{fill:#D4D9DD;}
	.st87{fill:#FFEDE0;}
	.st88{fill:#FFA466;}
	.st89{fill:#005A80;}
	.st90{fill:#535CFE;}
	.st91{fill:#049B9B;}
	.st92{opacity:0.4;fill:#A8C5BD;}
	.st93{opacity:0.4;fill:#6A696E;}
	.st94{fill:#4C5557;}
	.st95{fill:#0D3249;}
	.st96{fill:#0D415B;}
	.st97{fill:#FFAF39;}
	.st98{fill:#1BB687;}
	.st99{fill:none;stroke:#FFFFFF;stroke-width:1.8512;stroke-miterlimit:10;}
	.st100{fill:#E94150;}
	.st101{clip-path:url(#XMLID_44_);fill:#E94150;}
	.st102{fill:#C5C7C4;}
	.st103{fill:#00E9E6;}
	.st104{fill-rule:evenodd;clip-rule:evenodd;fill:#FFFFFF;}
	.st105{fill-rule:evenodd;clip-rule:evenodd;fill:#D6D6D6;}
	.st106{opacity:0.2;fill-rule:evenodd;clip-rule:evenodd;fill:#FFFFFF;}
	.st107{fill:#D3374A;}
	.st108{fill:#E88B10;}
	.st109{fill:#AFB5AA;}
	.st110{fill:#C3C3C5;}
	.st111{fill:#6A696E;}
	.st112{fill:#56E2A6;}
	.st113{fill:#45CE90;}
	.st114{fill:#FFD939;}
	.st115{fill:#E5BF1F;}
	.st116{fill:#C93547;}
	.st117{fill:#05D1C6;}
	
		.st118{fill:none;stroke:#126484;stroke-width:2.3453;stroke-linecap:round;stroke-linejoin:round;stroke-miterlimit:10;stroke-dasharray:9.381;}
	.st119{opacity:0.5;}
	.st120{fill:#427CCC;}
	.st121{fill:#33435A;}
	.st122{fill:#F3CFC1;}
	.st123{fill:#0C2757;}
	.st124{fill:#81BFEF;}
	.st125{fill:#06529C;}
	.st126{fill:#DE937A;}
	.st127{fill:#272727;}
	.st128{fill:#434E5B;}
	.st129{fill:#F4F4F4;}
</style>
<g id="background">
</g>
<g id="objects">
	<g class="st119">
		<path class="st9" d="M441.6,354.7c-27.3,0.1-54.6,0.7-81.9,3.3c-10.3,1-20.3,3.2-30.6,4.1c-20.6,1.8-40.8,5.1-61.4,6.7
			c-16.6,1.2-33.3,2-49.9,3.5c-15.5,1.5-32.7,1.1-48.2-1.3c-11.4-1.8-22.9-2.8-34.1-5.7c-12.6-3.2-26.2-5.6-39.3-5.5
			c-18.7,0.1-36.8,0.1-54.7,5.9c-6.3,2-13.9,5.3-18.7,9.5c-10.9,9.7-12.4,33.8-1.5,43.8c18.3,16.9,57.4,23.5,83.1,23.8
			c28.1,0.3,55.5-1.5,83.7-2.6c26.2-1,52.3-2.4,78.6-2.4c53.6,0.1,107.2,0,160.7-3.2c50.2-3,100.6-2,151-2
			c51.6,0,102.9,0.4,154.2,6.4c22.3,2.6,45.1,3.6,67.5,5.4c20.1,1.7,39.4,0,59.5-1.6c16.8-1.3,33.5-5.1,48.8-11.6
			c12.1-5.1,33.7-21,37.4-33.2c10.4-34.2-146.5-33.4-170.6-33.3c-27,0.1-54.1,0.9-81.1,0c-11.3-0.4-22.5-2.3-33.5-4.5
			c-11-2.1-22.1-1.6-33.3-2.5c-46.6-3.7-93.3-3.2-140-3.2C472,354.8,456.8,354.7,441.6,354.7z"/>
	</g>
	<g>
		<g>
			<path class="st120" d="M680.5,193.4c0.2-2.5,0.3-5.1,0.2-7.7c-0.1-2.5-0.3-5-0.7-7.4l-12.9-2.1l-4.4-12.2l8.6-9.9
				c-2.6-4.3-5.7-8.3-9.2-11.9l-11.7,5.9l-10.7-7.3l1.2-13.1c-4.5-1.9-9.2-3.3-14.1-4.1l-6.1,11.6l-13,0.3l-6.7-11.3
				c-5,1.1-9.8,2.8-14.3,5l1.9,13l-10.3,7.9l-12-5.2c-3.3,3.8-6.2,7.9-8.6,12.4l9.2,9.4l-3.7,12.5l-12.8,2.9
				c-0.2,2.6-0.3,5.2-0.2,7.9c0.1,2.4,0.3,4.8,0.6,7.2l12.9,2.2l4.3,12.2l-8.7,9.9c2.6,4.4,5.7,8.4,9.2,12l11.7-5.8l10.7,7.3
				l-1.2,13.1c4.6,1.9,9.5,3.4,14.5,4.3l6.1-11.7l13-0.4l6.7,11.3c5-1.2,9.8-2.9,14.2-5.1l-2-13l10.3-7.9l12,5.2
				c3.3-3.8,6.2-8,8.5-12.5l-9.2-9.3l3.6-12.5L680.5,193.4z M615.5,220.1c-17.8,0-32.2-14.4-32.2-32.2s14.4-32.2,32.2-32.2
				c17.8,0,32.2,14.4,32.2,32.2S633.3,220.1,615.5,220.1z"/>
			<g>
				<polygon class="st121" points="569.7,331.8 515.8,371.1 468.8,350.8 461.9,363.5 497.5,387.7 517.5,395.2 569.7,370 				"/>
				<polygon class="st122" points="641.7,250.9 642.9,234.5 629.5,224.1 623.9,231.4 630,242.2 627.8,247.8 633.7,256.7 				"/>
				<g>
					<g>
						<g>
							<polygon class="st121" points="536.7,437.6 535.6,530.9 545.5,651 559.1,651 575.2,540.2 593.7,429.2 							"/>
							<polygon class="st123" points="559,656.7 544.4,664 537.1,656.7 544.4,649.4 559,649.4 							"/>
						</g>
						<g>
							<polygon class="st121" points="629.4,437.6 629.6,491.6 620.5,651 607,651 584.4,545.2 572.3,429.2 							"/>
							<polygon class="st123" points="607.1,656.7 621.7,664 629,656.7 621.7,649.4 607.1,649.4 							"/>
						</g>
					</g>
					<path class="st121" d="M643.4,470.1c0.3,8.6,0.1,20-3.5,20.4c-0.7,0.1-1.3-0.2-1.9-0.5c-6.3-3-10.7-7.4-16.9-10.3
						c-6.5-3.1-13.8-4.7-21-5.8c-10.7-1.7-21.6-2.7-32.4-2.8c-9.3-0.1-18.9,4.2-27.7,6.5c-3.4,0.9-6.1,3.4-8.9,5.3
						c-4.1,2.9-6,4-5.4-1.8c0.9-9.5,1.9-19,3-28.5c2.3-18.9,5.5-37.8,10.9-56.1c2.1-7,4.4-13.9,6.8-20.8c2.9-8.4,5.8-16.8,8.6-25.2
						c3.6-10.4,9.6-17.8,20.2-21.4c9.2-3.2,20.5-4,29.4,0.4c9.9,4.9,14.6,21.6,19.4,30.6c4.2,7.8,9.5,29.2,11.1,37.6
						c1.9,10.2,3.7,20.3,5,30.4c1.5,11.2,2.6,22.3,2.9,33.4C643.1,462.6,643.3,466,643.4,470.1z"/>
					<path class="st6" d="M594.6,330.9l-18.3,0.2c0,0-19.6,68.5-20.3,80.3c-0.7,11.6-5.7,58.6-5.7,58.6s20.2,0.5,43.6,3.3
						c22.8,4.9,24.7,2,24.7,2s-12.3-49.4-12.7-63.6c-0.4-14.5-2.3-62.5-2.3-62.5L594.6,330.9z"/>
					<path class="st124" d="M591.9,332h-9c-2.1,0-3.3,2.4-2,4.1l3.7,4.8l-9.8,90.6l12.1,11.9l8.3-14.1l-2.3-88.4l1.5-5.8
						C594.8,333.6,593.6,332,591.9,332z"/>
					<g>
						<path class="st122" d="M583.5,331.3c0.2,0.2,0.5,0.3,0.7,0.4c0.6,0.2,1.2,0.1,1.8,0c2.4-0.3,4.8-0.6,7.3-0.9
							c-0.8-7.4,3.5-9.1,7.7-13.8c4.3-4.8,3-11.3,2.7-17.2c-0.1-1.6-0.1-3.3-0.8-4.8c-1.2-2.6-4.1-4.1-6.8-4.9
							c-7-2.2-15.1-1.6-21.3,2.3c-1.6,1.1-3.2,2.4-4.1,4.1c-1.4,2.7-1,5.9-0.6,8.9c0.6,4.6,2,9.1,4.6,13c2.4,3.6,7.1,5.4,7.6,9.7
							C582.3,329.3,582.7,330.6,583.5,331.3z"/>
						<g>
							<path class="st125" d="M570.3,300.1c0.4,1.9,1.3,3.7,0.8,5.6c-3-1-4.9-4-5.9-7.1c-0.5-1.4-0.8-2.9-0.7-4.3
								c0.1-1.5,0.8-3,1.9-3.8c1.6-1.2,4.5-0.7,5,1.4C571.8,294,569.6,297.3,570.3,300.1z"/>
							<path class="st123" d="M554.6,283.7c0.1-2.2,0.9-4.2,2.9-5.6c1.7-1.2,3.7-2.1,4.7-4c0.8-1.4,0.9-3.2,1.7-4.6
								c1.5-2.6,4.6-3.4,7.3-4.2c6.9-2.2,10.6-4.7,17.8-1.9c5.2,2,11.8,2.3,16.6,5.2c2,1.2,3.7,3.2,5.1,5.4c4.8,7.6,6,18.2,2.9,26.1
								c-0.7,1.8-1.6,3.4-2.6,5c-1.9,3.1-4,6.9-7.4,8.5c-0.2-1.5-1.3-2.3-1.6-3.7c-0.2-1-0.2-2.1-0.1-3.2c0.2-4.2,1.5-10.7-2.7-12.8
								c-5.2-2.6-15.1-0.3-20.1,1.9c-4.5,2-12,4.5-16.8,2.4C558,296.2,554.4,288.5,554.6,283.7z"/>
						</g>
					</g>
				</g>
				<polygon class="st121" points="600.4,328.5 646.8,314.8 629.6,256.8 643.8,246.7 677.9,313.8 668.5,337 624.2,359.9 				"/>
			</g>
			<polygon class="st122" points="453.4,359.8 458.3,350.8 470.1,350.8 476.3,359.9 462.9,365.8 			"/>
			<g>
				<g>
					<g>
						<g>
							<path class="st120" d="M466.4,367.2l-5.2-11.6c-4.3,0.4-8.6,0.9-13,1.7c-4.3,0.8-8.6,1.8-12.7,2.9l-0.8,12.7
								c-0.9,14.4-17.4,22.2-29.1,13.8l-10.4-7.4c-7.1,5-13.8,10.6-19.9,16.9l5.6,11.4c6.4,13-4,27.9-18.3,26.5l-12.7-1.3
								c-3.8,7.9-6.7,16.1-8.8,24.5l10.6,7.1c12,8,10.5,26.1-2.6,32.1l-11.6,5.2c0.4,4.3,0.9,8.6,1.7,13c0.8,4.3,1.8,8.6,2.9,12.7
								l12.7,0.8c14.4,0.9,22.2,17.4,13.8,29.1l-7.4,10.4c5,7.1,10.6,13.8,16.9,19.9l11.4-5.6c13-6.4,27.9,4,26.5,18.3l-1.3,12.7
								c7.9,3.8,16.1,6.7,24.5,8.8l7.1-10.6c8-12,26.1-10.5,32.1,2.6l5.2,11.6c4.3-0.4,8.6-0.9,13-1.7c4.3-0.8,8.6-1.8,12.7-2.9
								l0.8-12.7c0.9-14.4,17.4-22.2,29.1-13.8l10.4,7.4c7.1-5,13.8-10.6,19.9-16.9l-5.6-11.4c-6.4-13,4-27.9,18.3-26.5l12.7,1.3
								c3.8-7.9,6.7-16.1,8.8-24.5l-10.6-7.1c-12-8-10.5-26.1,2.6-32.1l11.6-5.2c-0.4-4.3-0.9-8.6-1.7-13c-0.8-4.3-1.8-8.6-2.9-12.7
								l-12.7-0.8c-14.4-0.9-22.2-17.4-13.8-29.1l7.4-10.4c-5-7.1-10.6-13.8-16.9-19.9l-11.4,5.6c-13,6.4-27.9-4-26.5-18.3l1.3-12.7
								c-7.9-3.8-16.1-6.7-24.5-8.8l-7.1,10.6C490.4,381.8,472.3,380.4,466.4,367.2z M526.9,480.6c5.5,30.1-14.5,59-44.6,64.5
								c-30.1,5.5-59-14.5-64.5-44.6c-5.5-30.1,14.5-59,44.6-64.5C492.6,430.5,521.5,450.5,526.9,480.6z"/>
						</g>
					</g>
				</g>
			</g>
		</g>
		<g>
			<g>
				<polygon class="st126" points="345.1,430.2 348.1,439.8 353.1,443.9 354.7,442.4 353.2,438.7 363.5,445.6 368.6,442.4 
					360.9,429.4 349,422.5 				"/>
				<polygon class="st124" points="264.6,332 288.1,336.4 320.2,395.8 358,425.1 347.1,437.4 306.4,413.6 263.6,350.1 				"/>
				<g>
					<path class="st127" d="M279.5,648l11.3,8l3.8,6.1c0,0-4.3,1.9-6.6,2.4c-2.4,0.5-20.8-2.4-20.8-2.4v-10.9L279.5,648z"/>
					<path class="st127" d="M240.6,653.2l6.1,6.1c0,0,5.2,8.5,2.8,8.5c-2.4,0-15.1,1.4-16.1,0c-0.9-1.4-8-6.1-9-7.1
						c-0.9-0.9-0.5-9.2-0.5-9.2L240.6,653.2z"/>
					<path class="st121" d="M262.3,487.3l-8,80.8l-13.7,85.1H224l-1.9-88.8c0,0-13.4-73-14.9-97.1L262.3,487.3z"/>
					<polygon class="st121" points="297.9,488.7 283.8,651.3 266.7,651.3 261.5,568.1 251.8,494.5 289,450.9 					"/>
					<path class="st124" d="M301.3,413.3c-2.7-9.4-4.8-19-6.6-28.6c-1.6-8.4-2.2-17.4-5.9-25.2c-3.7-7.8-10.7-13.7-16.1-20.4
						c-2.3-2.8-4.7-5.7-8.1-7.1c-2.3-0.9-4.9-1-7.4-1.1c-7.6-0.2-15.2-0.4-22.8-0.6c-2.8-0.1-5.7-0.1-8.2,1
						c-3.8,1.7-5.9,5.6-7.8,9.3c-4.8,9.3-5.7,19.7-6.1,30.2c0,0.1,2.2,28.4-2.8,50.8c-4.9,22.3-3.2,81.6,1.5,79.1
						c5.9-3.1,12.6-4.7,19.2-5.9c9.3-1.7,18.8-2.7,28.3-3l16.7,1.3h10.1c6,0.7,5.5,2.7,11.8,2.3C301,495.1,303.8,422.1,301.3,413.3z
						"/>
					<g>
						<path class="st126" d="M249.5,335.3c-4.2-0.2-8.5-0.4-12.7-0.6c-0.2-3.4-0.2-6.8,0.1-10.1c-3.6-1-7.7-2.7-8.6-6.3
							c-0.3-1.1-0.1-2.3,0-3.5c0.6-4.8,1.1-9.6,1.7-14.5c0.2-1.7,0.4-3.4,1.2-4.8c1.4-2.6,4.4-3.8,7.3-4.5c7.3-1.7,15.5-0.5,21.5,4
							c1.6,1.2,3.1,2.7,3.8,4.5c1.2,2.8,0.6,6.1,0,9.1c-0.6,2.8-1.1,5.6-1.7,8.4c-0.7,3.2-1.7,6.9-4.6,8.2c-1.6,0.7-3.5,0.6-4.9,1.7
							C250.1,328.6,250.7,332.4,249.5,335.3z"/>
						<path class="st123" d="M272.9,274c-0.9-0.2-1.9-0.4-2.9-0.8c-3.1-1.3-5.2-4-8.5-5.3c-6.6-2.5-14.9-2.2-21.3,0.6
							c-6.2,2.6-14.6,3.6-20.2,7.1c-2.3,1.5-4.1,3.6-5.5,6c-4.7,8.2-4.1,19.2,1.4,26.9c1.2,1.7,2.7,3.3,4.2,4.8
							c3.2,3.1,6.9,6.9,11.1,7.8c-0.1-3.7-4.1-15.1-1.4-18.2c3.5-4.2,10.4-4.1,15.4-3.6c5.9,0.6,10.7-1.3,16.6-1
							c3,0.1,6.4,0.8,8.7-1.2c2.7-2.2,8.3-9.3,9.6-12.4c1.2-2.7,0.4-6.1-1.6-8.2C276.8,274.6,274.9,274.3,272.9,274z"/>
					</g>
				</g>
				<g>
					<path class="st6" d="M276.3,419c0-1.3-0.2-2.6-0.7-3.8c-2.2-5.4-25.8-73.4-25.8-73.4s-1-3.5-1.4-6.6l-7.6-0.5l1.2,7.7l3.5,3
						c0,0,14.5,74.9,14.6,76.2l10.8,13.3L276.3,419z"/>
				</g>
			</g>
			<g>
				<g>
					<g>
						<g>
							<path class="st121" d="M349.3,280.6l-1.3-6.2c-2.1-0.3-4.3-0.4-6.5-0.5c-2.2-0.1-4.3,0-6.5,0.1l-1.7,6.1
								c-2,6.9-10.7,8.9-15.5,3.6l-4.2-4.7c-4,1.7-7.8,3.7-11.4,6.1l1.5,6.1c1.7,6.9-4.8,13.1-11.7,10.9l-6-1.9
								c-2.6,3.4-4.9,7.1-6.8,11l4.4,4.5c5,5.1,2.4,13.8-4.6,15.3l-6.2,1.3c-0.3,2.1-0.4,4.3-0.5,6.5c-0.1,2.2,0,4.3,0.1,6.5
								l6.1,1.7c6.9,2,8.9,10.7,3.6,15.5l-4.7,4.2c1.7,4,3.7,7.8,6.1,11.4l6.1-1.5c6.9-1.7,13.1,4.8,10.9,11.7l-1.9,6
								c3.4,2.6,7.1,4.9,11,6.8l4.5-4.4c5.1-5,13.8-2.4,15.3,4.6l1.3,6.2c2.1,0.3,4.3,0.4,6.5,0.5c2.2,0.1,4.3,0,6.5-0.1l1.7-6.1
								c2-6.9,10.7-8.9,15.5-3.6l4.2,4.7c4-1.7,7.8-3.7,11.4-6.1l-1.5-6.1c-1.7-6.9,4.8-13.1,11.7-10.9l6,1.9
								c2.6-3.4,4.9-7.1,6.8-11l-4.4-4.5c-5-5.1-2.4-13.8,4.6-15.3l6.2-1.3c0.3-2.1,0.4-4.3,0.5-6.5c0.1-2.2,0-4.3-0.1-6.5l-6.1-1.7
								c-6.9-2-8.9-10.7-3.6-15.5l4.7-4.2c-1.7-4-3.7-7.8-6.1-11.4l-6.1,1.5c-6.9,1.7-13.1-4.8-10.9-11.7l1.9-6
								c-3.4-2.6-7.1-4.9-11-6.8l-4.5,4.4C359.4,290.2,350.8,287.6,349.3,280.6z M366.8,341.9c-0.5,15.2-13.2,27.1-28.4,26.6
								c-15.2-0.5-27.1-13.2-26.6-28.4c0.5-15.2,13.2-27.1,28.4-26.6C355.4,314,367.3,326.7,366.8,341.9z"/>
						</g>
					</g>
				</g>
			</g>
			<g>
				<polygon class="st126" points="295.9,357.9 297.8,368 284.1,375.6 278.7,361.3 283.4,356 				"/>
				<polygon class="st124" points="226.2,331.3 206.6,341 190.3,394 212.3,401.4 287.6,373.6 280.7,358.9 224.3,369.8 				"/>
			</g>
		</g>
		<g>
			<g id="XMLID_91_">
				<g id="XMLID_97_">
					<path class="st8" d="M830,337.7c0.1-4.3,1.4-8.6,3.6-12.4c-1.6,3.7-2.7,7.6-2.9,11.6c-0.3,6.1,2,12.6,6.9,16.4
						c0,0,0.1,0,0.1,0.1c-0.4,0.9-0.7,1.9-1.1,2.8l-5.5-0.2c-0.8,0.2-1.9,0.4-3.4,0.8c0.9-1.2,1.7-2.5,2.4-3.9
						C833,346.5,829.8,343.8,830,337.7z"/>
				</g>
				<g id="XMLID_96_">
					<path class="st8" d="M868.1,342.9c0.2,1.3,0.1,2.7-0.4,3.9c-0.2,0.6-0.6,1.2-1.1,1.7c-0.6,0.5-1.4,0.7-2.1,1.2
						c-2.8,1.8-1.7,5.8-2.1,8.5c-0.1,0.8-0.3,1.5-0.6,2.2l-2.4-3.4l-10.4-0.4c0,0,0-0.1,0-0.1C856.7,355.8,864.2,350,868.1,342.9z"
						/>
				</g>
				<g id="XMLID_95_">
					<path class="st126" d="M719,323.6l-4.5-3.8l-5.8,1.9l-3.3,4.9l1.5,4.2l4.7,2.7l-1.8,0.5l0.3,1.5l7.4,3.4
						c1.8-1.9,7.8-3.3,8.8-4.3l-5-4.3L719,323.6z"/>
				</g>
				<g id="XMLID_94_">
					<polygon class="st128" points="861.7,662.6 861.9,664.2 862.4,669.6 851.8,676 845.7,671.3 850.7,665.4 851.2,665.1 
						851.4,665.7 					"/>
				</g>
				<path class="st125" d="M817.5,547.8c12,0.8,23.2,1.1,32,1.2l-0.3,41.1l13.1,72.3l-0.6,0.2l-10.3,3.1l-0.2-0.6l-34.5-85.2
					l-1.2-17.4L817.5,547.8z"/>
				<g id="XMLID_93_">
					<path class="st125" d="M814.9,553.6l0.6,8.9l-3.1,22.6l-3.5,81.5l-0.1,0l0-1.2l-10.5,0.3l-16.6-86.5l-0.9-35.4
						c11.4,1.8,23.3,3,34.6,3.8L814.9,553.6z"/>
				</g>
				<g id="XMLID_92_">
					<path class="st129" d="M815.4,547.7c0.7,0,1.4,0.1,2.1,0.1l-2,14.7l-0.6-8.9L815.4,547.7z"/>
				</g>
				<polygon class="st128" points="797.6,665.8 798.3,665.8 808.8,665.5 808.9,666.6 809,670.8 798,676.5 792.2,671.3 				"/>
				<g>
					<path class="st126" d="M836.6,356.1c0.4-0.9,0.7-1.9,1.1-2.8c0,0-0.1,0-0.1-0.1c-4.9-3.7-7.2-10.2-6.9-16.4
						c0.2-4,1.3-7.9,2.9-11.6c1.2-2.1,2.7-4,4.5-5.7c3.2-3,7.4-5.4,11.6-5.2c1.7,0.1,1,1.4,3,0.3c0.3-0.1,0.6-0.4,0.9-0.8
						c0.3,0.3,0.5,0.6,0.6,0.6c2,2.1,4.2,3,6.5,4.5c3.6,2.3,5.5,7.1,4.7,11.6c-0.4,1.9-1.1,3.8-0.7,5.6c0.4,1.6,1.6,2.7,2.4,4
						c0.5,0.8,0.8,1.7,0.9,2.6c-3.9,7.2-11.4,12.9-19.1,13.6c0,0,0,0.1,0,0.1c-0.1,0.5-0.2,0.9-0.3,1.4c-0.6,2-1.9,4.1-4,4.2
						c-0.9,0.1-1.8-0.3-2.7-0.6c-1.8-0.7-3.5-1.4-5.3-2.1c-0.4-0.1-0.8-0.3-0.9-0.7c-0.1-0.3,0-0.7,0.1-1
						C836.2,357.2,836.4,356.6,836.6,356.1z"/>
				</g>
				<g>
					<path class="st123" d="M798.7,306.2c4.2-0.3,7.8,2.2,11.2,4.5c0.6-4.1,4.5-6.9,8.3-8c3.8-1.1,7.8-1.1,11.5-2.5
						c4.4-1.7,8.8-5.6,13.2-4.3c4,1.1,6.4,6,8.9,10.2c0.1-0.1,0.1-0.1,0.2-0.2c1.9-2,4-3.9,6.4-4.9c7.9-3.3,7,6.6,13.1,6.1
						c1.5-0.1,2.7-1.3,4.1-1.9c2.6-1.2,5.5-0.2,7.9,1.2c2.3,1.4,4.4,3.4,6.9,4.4c2.2,0.9,4.8,1.2,6.9,2.4c3.1,1.9,2.5,5.3,3,8.4
						c0.6,3.4,1.6,8.1,3.4,10.9c1.3,2.1,3.4,3.4,5.1,5.1c1.7,1.7,3.2,4,2.9,6.6c-0.4,2.4-2.3,4.4-2.8,6.8c-0.8,3.6-0.4,5.5-2,9.1
						c-0.8,1.8-1.7,3.8-3.3,4.9c-2.1,1.5-4.8,1.1-7.2,0.4c-2.3-0.7-4.7-1.7-7.1-1.2c-5.3,1-5,6.3-6.9,10.4c-1.3,2.7-3.5,4.8-6.1,6
						c-3.4,1.6-7.3,1.7-10.4,0c-4.7-2.6-6.8-8.7-5.9-14.3c0.3-2,1.2-3.9,1.8-5.8c0.2-0.7,0.4-1.5,0.6-2.2c0.4-2.7-0.6-6.7,2.1-8.5
						c0.7-0.4,1.5-0.6,2.1-1.2c0.5-0.4,0.8-1,1.1-1.7c0.5-1.3,0.6-2.6,0.4-3.9c-0.1-0.9-0.4-1.8-0.9-2.6c-0.8-1.4-2.1-2.4-2.4-4
						c-0.5-1.8,0.3-3.7,0.7-5.6c0.9-4.5-1.1-9.3-4.7-11.6c-2.4-1.5-4.6-2.5-6.5-4.5c-0.1-0.1-0.3-0.3-0.6-0.6
						c-0.3,0.4-0.7,0.7-0.9,0.8c-2.1,1-1.3-0.3-3-0.3c-4.2-0.1-8.5,2.2-11.6,5.2c-1.7,1.7-3.3,3.6-4.5,5.7
						c-2.2,3.8-3.5,8.1-3.6,12.4c-0.2,6.2,3,8.9,0.1,15.1c-0.7,1.4-1.5,2.7-2.4,3.9c-2.5,3.3-5.9,5.9-9.7,7.1c-0.4,0-0.9,0-1.3-0.1
						c-2.1-0.2-4.2-0.8-6.1-1.7c-1.9-1-3.6-2.3-5.1-3.8c-2.2-2.4-3.8-5.3-4.5-8.7c-0.4-1.8-0.5-3.8-1.7-5.1c-1-1-2.4-1.5-3.4-2.5
						c-4.1-4.3,3.7-12,1.9-17.9c-1.1-3.7-5.7-5.2-6.7-8.9C790.1,310.8,794.5,306.5,798.7,306.2z"/>
				</g>
				<g>
					<g>
						<path class="st6" d="M710.9,336.5c0.3-0.1,14.4,22.5,24.2,33.6c8.9,10.1,36.3,25.2,46.6,34c-3.2,11.4-6.6,24.2-9,35.7
							c-15.3,72.8-4.7,101.8-4.7,101.8c4.2,0.9,8.5,1.7,12.8,2.4c11.4,1.8,23.3,3,34.6,3.8c0.7,0,1.4,0.1,2.1,0.1
							c12,0.8,23.2,1.1,32,1.2c11.4,0.2,18.7-0.1,18.7-0.1L893.7,405l-17.4-24.4c-3.4,1.6-7.3,1.7-10.4,0c-4.7-2.6-6.8-8.7-5.9-14.3
							c0.3-2,1.2-3.9,1.8-5.8l-2.4-3.4l-10.4-0.4c-0.1,0.5-0.2,0.9-0.3,1.4c-0.6,2-1.9,4.1-4,4.2c-0.9,0.1-1.8-0.3-2.7-0.6
							c-1.8-0.7-3.5-1.4-5.3-2.1c-0.4-0.1-0.8-0.3-0.9-0.7c-0.1-0.3,0-0.7,0.1-1c0.2-0.5,0.4-1.1,0.6-1.6l-5.5-0.2
							c-0.8,0.2-1.9,0.4-3.4,0.8c-2.5,3.3-5.9,5.9-9.7,7.1c-0.4,0-0.9,0-1.3-0.1c-2.1-0.2-4.2-0.8-6.1-1.7c-1.9-1-3.6-2.3-5.1-3.8
							c-11.9,0.5-31.1,8-41.3,1.9c-3.3-2-38.2-27.6-37.4-27.8c0,0-14.1,4-15.5,4.3C711.1,336.5,710.9,336.5,710.9,336.5z"/>
					</g>
				</g>
			</g>
			<g>
				<g>
					<g>
						<g>
							<path class="st124" d="M763.8,456.9l-3-4.6c-1.8,0.4-3.6,1-5.5,1.6c-1.8,0.6-3.6,1.3-5.3,2.1l0.5,5.5
								c0.5,6.3-6,10.7-11.6,7.8l-4.9-2.5c-2.7,2.6-5.2,5.5-7.4,8.6l3.2,4.5c3.6,5.1,0.1,12.2-6.1,12.6l-5.5,0.3
								c-1.1,3.7-1.8,7.4-2.2,11.1l5,2.3c5.7,2.7,6.3,10.5,1,14l-4.6,3c0.4,1.8,1,3.6,1.6,5.5c0.6,1.8,1.3,3.6,2.1,5.3l5.5-0.5
								c6.3-0.5,10.7,6,7.8,11.6l-2.5,4.9c2.6,2.7,5.5,5.2,8.6,7.4l4.5-3.2c5.1-3.6,12.2-0.1,12.6,6.1l0.3,5.5
								c3.7,1.1,7.4,1.8,11.1,2.2l2.3-5c2.7-5.7,10.5-6.3,14-1l3,4.6c1.8-0.4,3.6-1,5.5-1.6c1.8-0.6,3.6-1.3,5.3-2.1l-0.5-5.5
								c-0.5-6.3,6-10.7,11.6-7.8l4.9,2.5c2.7-2.6,5.2-5.5,7.4-8.6l-3.2-4.5c-3.6-5.1-0.1-12.2,6.1-12.6l5.5-0.3
								c1.1-3.7,1.8-7.4,2.2-11.1l-5-2.3c-5.7-2.7-6.3-10.5-1-14l4.6-3c-0.4-1.8-1-3.6-1.6-5.5c-0.6-1.8-1.3-3.6-2.1-5.3l-5.5,0.5
								c-6.3,0.5-10.7-6-7.8-11.6l2.5-4.9c-2.6-2.7-5.5-5.2-8.6-7.4l-4.5,3.2c-5.1,3.6-12.2,0.1-12.6-6.1l-0.3-5.5
								c-3.7-1.1-7.4-1.8-11.1-2.2l-2.3,5C775.1,461.6,767.2,462.2,763.8,456.9z M797.3,501.7c4.3,12.6-2.3,26.3-14.9,30.6
								c-12.6,4.3-26.3-2.3-30.6-14.9c-4.3-12.6,2.3-26.3,14.9-30.6C779.2,482.4,792.9,489.1,797.3,501.7z"/>
						</g>
					</g>
				</g>
			</g>
			<g id="XMLID_90_">
				<polygon class="st126" points="826.2,467.7 826.4,474.1 815.1,478.2 808.6,473.3 808.6,465.8 814.9,465.5 815.1,463.8 
					817.2,462.5 				"/>
			</g>
		</g>
		<path class="st125" d="M758.5,411.2c0.5-3.3,0.8-6.7,1-10.1c0.1-3.3,0-6.6-0.2-9.8l-16.9-4l-4.7-16.5l12.2-12.2
			c-3.1-6-6.8-11.5-11.1-16.6l-16,6.7L709.3,338l2.7-17.1c-5.7-2.9-11.8-5.2-18.2-6.7l-9.1,14.8l-17.2-0.8l-7.8-15.5
			c-6.7,1.1-13.1,2.9-19.2,5.4l1.4,17.3l-14.3,9.5l-15.4-7.9c-4.7,4.7-8.9,9.9-12.4,15.6l11.2,13.2l-6,16.1l-17.1,2.7
			c-0.5,3.4-0.9,6.8-1,10.4c-0.1,3.2,0,6.4,0.2,9.5l16.9,4l4.6,16.5l-12.3,12.2c3.1,6,6.8,11.6,11.1,16.7l16-6.7l13.5,10.6
			l-2.8,17.1c5.9,3,12.2,5.3,18.7,6.9l9-14.8l17.2,0.7l7.8,15.5c6.7-1.1,13.1-2.9,19.2-5.4l-1.4-17.3l14.3-9.6l15.4,7.9
			c4.7-4.7,8.9-10,12.4-15.7L735.4,430l5.9-16.1L758.5,411.2z M670.3,440.5c-23.5-1.6-41.2-21.9-39.6-45.4
			c1.6-23.5,21.9-41.2,45.4-39.6c23.5,1.6,41.2,21.9,39.6,45.4C714.1,424.3,693.8,442.1,670.3,440.5z"/>
		<g>
			<g>
				<g>
					<path class="st127" d="M138.4,656.4l-11.5-10.7c-3.3-1.7-6.9-2.9-9.8-2.8c-2.1,0-3.8,0.7-4.9,2.3c-1,1.5-1.2,3.5-0.5,5.1
						c0.2,0.6,0.6,1.1,1,1.6l0,0c0,0,0,0,0,0c0.3,0.4,0.7,0.8,1.1,1.2c0.2,0.3,0.5,0.5,0.8,0.8c2.4,2.6,6.4,6.8,8,7.8
						c2.3,1.4,7.5,5.1,13.5,0.9c0,0,0,0-0.1-0.1C138.2,661.1,138.9,658.7,138.4,656.4z"/>
					<path class="st122" d="M129.4,563.6l-0.9,13.4l-4.6,65.1l4.6,7.6c0,0,0.9,6.1-6.1,5.6c-2.1-0.1-9.4-9.5-9.4-9.5l1.1-4.3
						l-5.2-48.9l0-14.2l-2.5-15.8L129.4,563.6z"/>
				</g>
				<g>
					<path class="st127" d="M56.2,639.8c-2.1-0.7-4.1-0.6-5.8,0.7c-1.5,1.2-2.4,3.2-2.3,5.1c0.1,1.3,0.7,2.5,1.2,3.7
						c2.8,6,10.6,19.7,19.6,17.2c3.8-1.1,5.2-4.9,4.4-8.3C72.2,653.1,63.4,642.1,56.2,639.8z"/>
				</g>
				<path class="st122" d="M101.4,555.8L99.8,575L62,643.1c0,0,5.4,9.5,2,10.3c-3.4,0.8-13.6-2.1-13.6-12.8
					c4-13,19.6-57.1,19.6-57.1l7.3-11.4l-0.1-21.4L101.4,555.8z"/>
				<path class="st6" d="M58.7,491.3c-0.3-5.7,1.5-20.5,3.4-25.8c6.8-19.4,8.1-28.9,8.1-44.6c0-15.8-7-65.7-7-65.7l28.1-14.4
					l25.3,0.7l16.8,7.9c0,0,2.8,60.3,3.8,80.5c0.7,14.5,1.7,27,3,43.7c0,0,3.7,38.2-2,79.1c0,0-1.3,13.6-1.9,14.8
					c-0.1,0.4-0.1,0.6-0.1,0.6s-0.2,0-0.2,0l-64.7,0v-23.3c-2.2-7.5-4.2-15-6.2-22.6C62.6,512.6,59.2,501.8,58.7,491.3z"/>
				<path class="st120" d="M72.4,345l-11,8.3c0,0,8.4,57.5,8.9,67.6c0.4,10-12.5,50.2-12.5,50.2l53.6,7c0,0,7.9-42.8,10.1-64.1
					c2.3-21.3-30.2-73.2-30.2-73.2L72.4,345z"/>
				<path class="st120" d="M126.1,344l9.7,5.6c0,0-0.3,63.5,2.5,79.8c1.7,9.9,8.4,42,8.4,42l-17.3,5.9c0,0-10.7-40.1-12.8-61.4
					c-2.1-21.3,0.2-74.2,0.2-74.2L126.1,344z"/>
				<g>
					<path class="st122" d="M125.7,316.5c-0.3-16.9-22.7-17.8-31.5-5.7c-5.7,7.9-2.5,21.6,6,27.2c-0.1,0.4-0.2,0.7-0.2,1
						c-0.5,1.4-0.7,2.9-1,4.4c-0.1,0.6,8.6,1.7,9.6,1.8c0.3,0,0.7,0.1,1-0.1c0.5-0.4,0.5-2,0.6-2.6c0.1-0.7,0.3-1.4,0.4-2
						c5.3-0.7,9.8-4.5,12.2-9C125.2,326.8,125.8,321.6,125.7,316.5z"/>
					<g>
						<path class="st123" d="M124,320.5c1.4,5.5-1.8,10.9-4.7,15.6c-1.2,1.9-3,4.5-1.5,6.7c1.7,2.4,5.9,1.9,7.7,0.1
							c1.3-1.3,1.9-3,2.5-4.7c2.5-7.6,5.9-18.2,5.3-26.1c-0.5-6.4-8.4-17.7-16.4-13.7c-1.5,0.7-2.4,2.1-3.2,3.5
							c-0.5,0.8-0.9,1.7-1,2.6c-0.4,3.7,3.2,4.6,5.5,6.6C121,313.6,123.1,317,124,320.5z"/>
						<path class="st123" d="M95.2,318.8c-0.2,2-1.2,4.2-1.5,6.3c-0.5,3.9,0.3,8.9-1.1,12.4c-3.9-0.5-8.7-3-11.6-5.7
							c-3-2.8-2.4-6.9-3.1-10.9c-0.6-3.8-1.4-7.5-1.2-11.3c1.2-20.8,21.9-32.2,40.2-22.8c6.9,3.5,9.9,12.6,4.9,18.5
							c-5.5,6.4-16.6,3.6-23.1,8.3C97.2,314.7,96.1,316.6,95.2,318.8z"/>
					</g>
				</g>
			</g>
			<polygon class="st120" points="132.4,347.5 142.9,353.9 157.7,401.9 196.1,406.7 186.7,417.8 141.3,422.5 125.7,375 			"/>
			<g>
				<path class="st125" d="M278.4,446.6l7.1-3.7c-0.7-5.4-2-10.7-3.7-16l-8-0.1c-9.1-0.1-14.5-10.2-9.5-17.9l4.3-6.7
					c-3.4-4.4-7.1-8.4-11.2-12l-7,3.9c-7.9,4.4-17.6-1.6-17.2-10.7l0.4-8c-2.5-1-5.1-2-7.7-2.8c-2.6-0.8-5.3-1.5-8-2l-4.1,6.9
					c-4.7,7.8-16.1,7.4-20.2-0.7l-3.7-7.1c-5.4,0.7-10.7,2-16,3.7l-0.1,8c-0.1,9.1-10.2,14.5-17.9,9.5l-6.7-4.3
					c-4.4,3.4-8.4,7.1-12,11.2l3.9,7c4.4,7.9-1.6,17.6-10.7,17.2l-8-0.4c-1,2.5-2,5.1-2.8,7.7c-0.8,2.6-1.5,5.3-2,8l6.9,4.1
					c7.8,4.7,7.4,16.1-0.7,20.2l-7.1,3.7c0.7,5.4,2,10.7,3.7,16l8,0.1c9.1,0.1,14.5,10.2,9.5,17.9l-4.3,6.7c3.4,4.4,7.1,8.4,11.2,12
					l7-3.9c7.9-4.4,17.6,1.6,17.2,10.7l-0.4,8c2.5,1,5.1,2,7.7,2.8c2.6,0.8,5.3,1.5,8,2l4.1-6.9c4.7-7.8,16.1-7.4,20.2,0.7l3.7,7.1
					c5.4-0.7,10.7-2,16-3.7l0.1-8c0.1-9.1,10.2-14.5,17.9-9.5l6.7,4.3c4.4-3.4,8.4-7.1,12-11.2l-3.9-7c-4.4-7.9,1.6-17.6,10.7-17.2
					l8,0.4c1-2.5,2-5.1,2.8-7.7c0.8-2.6,1.5-5.3,2-8l-6.9-4.1C270,462.2,270.4,450.8,278.4,446.6z M201.2,495.8
					c-23,0-41.6-18.6-41.6-41.6c0-23,18.6-41.6,41.6-41.6c23,0,41.6,18.6,41.6,41.6C242.8,477.2,224.2,495.8,201.2,495.8z"/>
			</g>
			<polygon class="st122" points="180.9,426.2 170.2,420.1 176.8,409.7 185.4,409.5 190.3,415.1 			"/>
			<polygon class="st120" points="61.3,353.2 71,360.7 83.1,432.9 117.3,457.2 112.4,470.4 66.4,448.6 52.8,404.5 			"/>
			<polygon class="st122" points="117.3,470.4 109.7,468.3 115.2,457.2 124.7,456.1 129.6,462.6 			"/>
		</g>
	</g>
</g>
</svg>
